<svg version="1.0" xmlns="http://www.w3.org/2000/svg" width="198.667" height="198.667" viewBox="0 0 149 149"><path d="M61.4 1c-6.1 1.2-19.2 6.5-26.1 10.6-11.6 6.9-24.1 20.7-28.8 31.9-4.7 11.2-6 17.8-6 31 .1 12.8.7 17.3 4 26.3 3.8 10.5 9 18.7 17 26.7 7.7 7.7 15.9 12.9 28 17.7 7.6 3.1 8.7 3.2 23.6 3.5 16.8.3 20.9-.4 31.8-5.5 17.1-7.9 31.3-23 38.3-40.7 4.6-11.4 5-14.2 4.5-29.4-.2-8-.7-15.3-.9-16.1-2.6-8-5.3-13.7-10.4-21.5-6-9.3-13.1-16.3-22.9-22.9C106.7 8 94.7 2.8 88 1.5 82.6.4 66 .2 61.4 1z"/></svg>